<svg width="539" height="168" viewBox="0 0 539 168" fill="none" xmlns="http://www.w3.org/2000/svg">
<g clip-path="url(#clip0_319_16)">
<path d="M83.9959 0.276855C37.7469 0.276855 0.25293 37.7699 0.25293 84.0189C0.25293 130.27 37.7469 167.76 83.9959 167.76C130.25 167.76 167.74 130.27 167.74 84.0189C167.74 37.7729 130.25 0.280855 83.9949 0.280855L83.9959 0.276855ZM122.4 121.057C120.9 123.517 117.68 124.297 115.22 122.787C95.5579 110.777 70.8059 108.057 41.6559 114.717C38.8469 115.357 36.0469 113.597 35.4069 110.787C34.7639 107.977 36.5169 105.177 39.3329 104.537C71.2329 97.2489 98.5959 100.387 120.67 113.877C123.13 115.387 123.91 118.597 122.4 121.057ZM132.65 98.2549C130.76 101.327 126.74 102.297 123.67 100.407C101.16 86.5709 66.8469 82.5639 40.2219 90.6459C36.7689 91.6889 33.1219 89.7429 32.0739 86.2959C31.0339 82.8429 32.9809 79.2029 36.4279 78.1529C66.8409 68.9249 104.65 73.3949 130.5 89.2799C133.57 91.1699 134.54 95.1889 132.65 98.2549ZM133.53 74.5109C106.54 58.4799 62.0099 57.0059 36.2409 64.8269C32.1029 66.0819 27.7269 63.7459 26.4729 59.6079C25.2189 55.4679 27.5529 51.0949 31.6939 49.8369C61.2749 40.8569 110.45 42.5919 141.524 61.0389C145.254 63.2479 146.474 68.0549 144.264 71.7719C142.064 75.4939 137.244 76.7209 133.534 74.5109H133.53ZM228.09 77.5829C213.63 74.1349 211.06 71.7149 211.06 66.6299C211.06 61.8259 215.58 58.5929 222.31 58.5929C228.83 58.5929 235.29 61.0479 242.07 66.1019C242.27 66.2549 242.53 66.3159 242.78 66.2759C243.04 66.2379 243.26 66.0989 243.41 65.8899L250.47 55.9379C250.76 55.5279 250.68 54.9629 250.29 54.6499C242.22 48.1769 233.14 45.0299 222.52 45.0299C206.91 45.0299 196 54.3989 196 67.8039C196 82.1789 205.41 87.2689 221.67 91.1979C235.5 94.3849 237.84 97.0549 237.84 101.827C237.84 107.117 233.12 110.407 225.52 110.407C217.08 110.407 210.19 107.557 202.49 100.897C202.3 100.727 202.04 100.657 201.8 100.667C201.54 100.687 201.31 100.807 201.15 100.997L193.23 110.417C192.9 110.817 192.94 111.397 193.32 111.737C202.28 119.737 213.3 123.957 225.2 123.957C242.02 123.957 252.89 114.767 252.89 100.537C252.92 88.5299 245.73 81.8799 228.12 77.5959L228.09 77.5829ZM290.95 63.3229C283.66 63.3229 277.68 66.1949 272.74 72.0799V65.4559C272.74 64.9329 272.32 64.5069 271.8 64.5069H258.85C258.33 64.5069 257.91 64.9329 257.91 65.4559V139.057C257.91 139.577 258.33 140.007 258.85 140.007H271.8C272.32 140.007 272.74 139.577 272.74 139.057V115.827C277.68 121.357 283.66 124.067 290.95 124.067C304.5 124.067 318.22 113.637 318.22 93.6979C318.24 73.7549 304.52 63.3219 290.96 63.3219L290.95 63.3229ZM303.16 93.6979C303.16 103.847 296.91 110.937 287.95 110.937C279.1 110.937 272.42 103.527 272.42 93.6979C272.42 83.8679 279.1 76.4599 287.95 76.4599C296.76 76.4589 303.16 83.7079 303.16 93.6979ZM353.37 63.3229C335.92 63.3229 322.25 76.7589 322.25 93.9149C322.25 110.887 335.83 124.177 353.16 124.177C370.67 124.177 384.38 110.787 384.38 93.6979C384.38 76.6669 370.76 63.3249 353.37 63.3249V63.3229ZM353.37 111.037C344.09 111.037 337.09 103.577 337.09 93.6929C337.09 83.7639 343.85 76.5589 353.16 76.5589C362.5 76.5589 369.54 84.0159 369.54 93.9099C369.54 103.837 362.74 111.037 353.37 111.037ZM421.64 64.5069H407.39V49.9409C407.39 49.4189 406.97 48.9929 406.45 48.9929H393.5C392.98 48.9929 392.55 49.4189 392.55 49.9409V64.5069H386.33C385.81 64.5069 385.39 64.9329 385.39 65.4559V76.5829C385.39 77.1049 385.81 77.5319 386.33 77.5319H392.55V106.327C392.55 117.957 398.34 123.857 409.77 123.857C414.41 123.857 418.26 122.897 421.89 120.837C422.19 120.677 422.37 120.357 422.37 120.017V109.417C422.37 109.097 422.2 108.787 421.92 108.617C421.64 108.437 421.29 108.427 421 108.577C418.51 109.827 416.1 110.407 413.4 110.407C409.25 110.407 407.39 108.517 407.39 104.297V77.5369H421.64C422.16 77.5369 422.58 77.1109 422.58 76.5879V65.4619C422.6 64.9389 422.18 64.5129 421.65 64.5129L421.64 64.5069ZM471.28 64.5639V62.7749C471.28 57.5119 473.3 55.1649 477.82 55.1649C480.52 55.1649 482.69 55.7009 485.12 56.5109C485.42 56.6049 485.73 56.5579 485.97 56.3789C486.22 56.1999 486.36 55.9129 486.36 55.6089V44.6989C486.36 44.2819 486.1 43.9129 485.69 43.7899C483.13 43.0269 479.85 42.2439 474.93 42.2439C462.98 42.2439 456.65 48.9779 456.65 61.7109V64.4509H450.43C449.91 64.4509 449.48 64.8769 449.48 65.3989V76.5829C449.48 77.1049 449.91 77.5319 450.43 77.5319H456.65V121.937C456.65 122.467 457.08 122.887 457.6 122.887H470.54C471.07 122.887 471.49 122.467 471.49 121.937V77.5349H483.58L502.1 121.937C500 126.597 497.93 127.527 495.11 127.527C492.83 127.527 490.42 126.847 487.97 125.497C487.74 125.377 487.46 125.357 487.22 125.427C486.97 125.517 486.76 125.697 486.66 125.937L482.27 135.567C482.06 136.027 482.24 136.557 482.68 136.797C487.26 139.277 491.39 140.337 496.5 140.337C506.06 140.337 511.35 135.877 516 123.897L538.46 65.8599C538.58 65.5679 538.54 65.2379 538.36 64.9789C538.19 64.7219 537.9 64.5669 537.59 64.5669H524.11C523.7 64.5669 523.34 64.8239 523.21 65.2029L509.4 104.637L494.28 65.1769C494.14 64.8099 493.79 64.5669 493.4 64.5669H471.28V64.5639ZM442.5 64.5069H429.55C429.03 64.5069 428.6 64.9329 428.6 65.4559V121.937C428.6 122.467 429.03 122.887 429.55 122.887H442.5C443.02 122.887 443.45 122.467 443.45 121.937V65.4599C443.45 64.9369 443.03 64.5109 442.5 64.5109V64.5069ZM436.1 38.7879C430.97 38.7879 426.81 42.9399 426.81 48.0689C426.81 53.2009 430.97 57.3579 436.1 57.3579C441.23 57.3579 445.38 53.2009 445.38 48.0689C445.38 42.9409 441.22 38.7879 436.1 38.7879Z" fill="white"/>
</g>
<defs>
<clipPath id="clip0_319_16">
<rect width="539" height="168" fill="white"/>
</clipPath>
</defs>
</svg>
